<?xml version="1.0" encoding="UTF-8" standalone="no"?>
<!DOCTYPE svg PUBLIC "-//W3C//DTD SVG 1.1//EN"
 "http://www.w3.org/Graphics/SVG/1.1/DTD/svg11.dtd">
<!-- Generated by graphviz version 2.40.1 (20161225.0304)
 -->
<!-- Title: dependencies Pages: 1 -->
<svg width="1441pt" height="428pt"
 viewBox="0.00 0.00 1441.00 428.00" xmlns="http://www.w3.org/2000/svg" xmlns:xlink="http://www.w3.org/1999/xlink">
<g id="graph0" class="graph" transform="scale(1 1) rotate(0) translate(4 424)">
<title>dependencies</title>
<polygon fill="#ffffff" stroke="transparent" points="-4,4 -4,-424 1437,-424 1437,4 -4,4"/>
<text text-anchor="start" x="695.5091" y="-42.4" font-family="sans-serif" font-weight="bold" font-size="14.00" fill="#000000">Legend</text>
<polygon fill="#ffffb3" stroke="transparent" points="482.5,-10 482.5,-30 502.5,-30 502.5,-10 482.5,-10"/>
<text text-anchor="start" x="506.129" y="-15.4" font-family="sans-serif" font-size="14.00" fill="#000000"> &#160;Declarations</text>
<polygon fill="#8dd3c7" stroke="transparent" points="595.5,-10 595.5,-30 615.5,-30 615.5,-10 595.5,-10"/>
<text text-anchor="start" x="619.2251" y="-15.4" font-family="sans-serif" font-size="14.00" fill="#000000"> &#160;Module</text>
<polygon fill="#80b1d3" stroke="transparent" points="681.5,-10 681.5,-30 701.5,-30 701.5,-10 681.5,-10"/>
<text text-anchor="start" x="705.2812" y="-15.4" font-family="sans-serif" font-size="14.00" fill="#000000"> &#160;Bootstrap</text>
<polygon fill="#fdb462" stroke="transparent" points="778.5,-10 778.5,-30 798.5,-30 798.5,-10 778.5,-10"/>
<text text-anchor="start" x="802.1732" y="-15.4" font-family="sans-serif" font-size="14.00" fill="#000000"> &#160;Providers</text>
<polygon fill="#fb8072" stroke="transparent" points="874.5,-10 874.5,-30 894.5,-30 894.5,-10 874.5,-10"/>
<text text-anchor="start" x="898.2258" y="-15.4" font-family="sans-serif" font-size="14.00" fill="#000000"> &#160;Exports</text>
<g id="clust1" class="cluster">
<title>cluster_AppModule</title>
<polygon fill="none" stroke="#000000" stroke-dasharray="1,5" points="37,-146 37,-412 441,-412 441,-146 37,-146"/>
</g>
<g id="clust2" class="cluster">
<title>cluster_AppModule_declarations</title>
<polygon fill="none" stroke="#000000" points="311,-222 311,-274 433,-274 433,-222 311,-222"/>
</g>
<g id="clust4" class="cluster">
<title>cluster_AppModule_imports</title>
<polygon fill="none" stroke="#000000" points="54,-154 54,-274 303,-274 303,-154 54,-154"/>
</g>
<g id="clust6" class="cluster">
<title>cluster_AppModule_bootstrap</title>
<polygon fill="none" stroke="#000000" points="73,-352 73,-404 197,-404 197,-352 73,-352"/>
</g>
<g id="clust14" class="cluster">
<title>cluster_CoreModule</title>
<polygon fill="none" stroke="#000000" stroke-dasharray="1,5" points="8,-70 8,-138 202,-138 202,-70 8,-70"/>
</g>
<g id="clust19" class="cluster">
<title>cluster_CoreModule_providers</title>
<polygon fill="none" stroke="#000000" points="16,-78 16,-130 194,-130 194,-78 16,-78"/>
</g>
<g id="clust20" class="cluster">
<title>cluster_LayoutModule</title>
<polygon fill="none" stroke="#000000" stroke-dasharray="1,5" points="449,-146 449,-214 1269,-214 1269,-146 449,-146"/>
</g>
<g id="clust21" class="cluster">
<title>cluster_LayoutModule_declarations</title>
<polygon fill="none" stroke="#000000" points="717,-154 717,-206 1261,-206 1261,-154 717,-154"/>
</g>
<g id="clust26" class="cluster">
<title>cluster_LayoutModule_imports</title>
<polygon fill="none" stroke="#000000" points="595,-154 595,-206 709,-206 709,-154 595,-154"/>
</g>
<g id="clust27" class="cluster">
<title>cluster_LayoutModule_exports</title>
<polygon fill="none" stroke="#000000" points="457,-154 457,-206 587,-206 587,-154 457,-154"/>
</g>
<g id="clust30" class="cluster">
<title>cluster_PagesModule</title>
<polygon fill="none" stroke="#000000" stroke-dasharray="1,5" points="1277,-146 1277,-214 1425,-214 1425,-146 1277,-146"/>
</g>
<g id="clust31" class="cluster">
<title>cluster_PagesModule_declarations</title>
<polygon fill="none" stroke="#000000" points="1285,-154 1285,-206 1417,-206 1417,-154 1285,-154"/>
</g>
<g id="clust37" class="cluster">
<title>cluster_SharedModule</title>
<polygon fill="none" stroke="#000000" stroke-dasharray="1,5" points="502,-70 502,-138 800,-138 800,-70 502,-70"/>
</g>
<g id="clust38" class="cluster">
<title>cluster_SharedModule_declarations</title>
<polygon fill="none" stroke="#000000" points="656,-78 656,-130 792,-130 792,-78 656,-78"/>
</g>
<g id="clust41" class="cluster">
<title>cluster_SharedModule_exports</title>
<polygon fill="none" stroke="#000000" points="510,-78 510,-130 648,-130 648,-78 510,-78"/>
</g>
<!-- AppComponent -->
<g id="node1" class="node">
<title>AppComponent</title>
<polygon fill="#ffffb3" stroke="#000000" points="424.9399,-266 319.0601,-266 319.0601,-230 424.9399,-230 424.9399,-266"/>
<text text-anchor="middle" x="372" y="-243.8" font-family="Times,serif" font-size="14.00" fill="#000000">AppComponent</text>
</g>
<!-- AppModule -->
<g id="node2" class="node">
<title>AppModule</title>
<polygon fill="#8dd3c7" stroke="#000000" points="176.6571,-331 173.6571,-335 152.6571,-335 149.6571,-331 93.3429,-331 93.3429,-295 176.6571,-295 176.6571,-331"/>
<text text-anchor="middle" x="135" y="-308.8" font-family="Times,serif" font-size="14.00" fill="#000000">AppModule</text>
</g>
<!-- AppComponent&#45;&gt;AppModule -->
<g id="edge1" class="edge">
<title>AppComponent&#45;&gt;AppModule</title>
<path fill="none" stroke="#000000" d="M372,-266.2921C372,-288.2057 372,-322 372,-322 372,-322 186.8253,-322 186.8253,-322"/>
<polygon fill="#000000" stroke="#000000" points="186.8253,-318.5001 176.8253,-322 186.8253,-325.5001 186.8253,-318.5001"/>
</g>
<!-- AppComponent  -->
<g id="node7" class="node">
<title>AppComponent </title>
<polygon fill="#80b1d3" stroke="#000000" points="189.439,-396 80.561,-396 80.561,-360 189.439,-360 189.439,-396"/>
<text text-anchor="middle" x="135" y="-373.8" font-family="Times,serif" font-size="14.00" fill="#000000">AppComponent </text>
</g>
<!-- AppModule&#45;&gt;AppComponent  -->
<g id="edge6" class="edge">
<title>AppModule&#45;&gt;AppComponent </title>
<path fill="none" stroke="#000000" stroke-dasharray="1,5" d="M135,-331.1061C135,-331.1061 135,-349.991 135,-349.991"/>
<polygon fill="#000000" stroke="#000000" points="131.5001,-349.9909 135,-359.991 138.5001,-349.991 131.5001,-349.9909"/>
</g>
<!-- AppRoutingModule -->
<g id="node3" class="node">
<title>AppRoutingModule</title>
<polygon fill="#8dd3c7" stroke="#000000" points="295.2744,-198 292.2744,-202 271.2744,-202 268.2744,-198 166.7256,-198 166.7256,-162 295.2744,-162 295.2744,-198"/>
<text text-anchor="middle" x="231" y="-175.8" font-family="Times,serif" font-size="14.00" fill="#000000">AppRoutingModule</text>
</g>
<!-- AppRoutingModule&#45;&gt;AppModule -->
<g id="edge2" class="edge">
<title>AppRoutingModule&#45;&gt;AppModule</title>
<path fill="none" stroke="#000000" d="M196.1832,-198.0307C196.1832,-232.4218 196.1832,-304 196.1832,-304 196.1832,-304 186.8245,-304 186.8245,-304"/>
<polygon fill="#000000" stroke="#000000" points="186.8245,-300.5001 176.8245,-304 186.8244,-307.5001 186.8245,-300.5001"/>
</g>
<!-- LayoutModule -->
<g id="node5" class="node">
<title>LayoutModule</title>
<polygon fill="#8dd3c7" stroke="#000000" points="184.7078,-266 181.7078,-270 160.7078,-270 157.7078,-266 85.2922,-266 85.2922,-230 184.7078,-230 184.7078,-266"/>
<text text-anchor="middle" x="135" y="-243.8" font-family="Times,serif" font-size="14.00" fill="#000000">LayoutModule</text>
</g>
<!-- AppRoutingModule&#45;&gt;LayoutModule -->
<g id="edge12" class="edge">
<title>AppRoutingModule&#45;&gt;LayoutModule</title>
<path fill="none" stroke="#000000" d="M168.8618,-198.2228C168.8618,-198.2228 168.8618,-219.7269 168.8618,-219.7269"/>
<polygon fill="#000000" stroke="#000000" points="165.3619,-219.7269 168.8618,-229.7269 172.3619,-219.727 165.3619,-219.7269"/>
</g>
<!-- PagesModule -->
<g id="node6" class="node">
<title>PagesModule</title>
<polygon fill="#8dd3c7" stroke="#000000" points="295.2064,-266 292.2064,-270 271.2064,-270 268.2064,-266 202.7936,-266 202.7936,-230 295.2064,-230 295.2064,-266"/>
<text text-anchor="middle" x="249" y="-243.8" font-family="Times,serif" font-size="14.00" fill="#000000">PagesModule</text>
</g>
<!-- AppRoutingModule&#45;&gt;PagesModule -->
<g id="edge16" class="edge">
<title>AppRoutingModule&#45;&gt;PagesModule</title>
<path fill="none" stroke="#000000" d="M233.6323,-198.2228C233.6323,-198.2228 233.6323,-219.7269 233.6323,-219.7269"/>
<polygon fill="#000000" stroke="#000000" points="230.1324,-219.7269 233.6323,-229.7269 237.1324,-219.727 230.1324,-219.7269"/>
</g>
<!-- CoreModule -->
<g id="node4" class="node">
<title>CoreModule</title>
<polygon fill="#8dd3c7" stroke="#000000" points="148.2619,-198 145.2619,-202 124.2619,-202 121.2619,-198 61.7381,-198 61.7381,-162 148.2619,-162 148.2619,-198"/>
<text text-anchor="middle" x="105" y="-175.8" font-family="Times,serif" font-size="14.00" fill="#000000">CoreModule</text>
</g>
<!-- CoreModule&#45;&gt;AppModule -->
<g id="edge3" class="edge">
<title>CoreModule&#45;&gt;AppModule</title>
<path fill="none" stroke="#000000" d="M71.0749,-198.2142C71.0749,-234.6396 71.0749,-313 71.0749,-313 71.0749,-313 83.0743,-313 83.0743,-313"/>
<polygon fill="#000000" stroke="#000000" points="83.0743,-316.5001 93.0743,-313 83.0742,-309.5001 83.0743,-316.5001"/>
</g>
<!-- LayoutModule&#45;&gt;AppModule -->
<g id="edge4" class="edge">
<title>LayoutModule&#45;&gt;AppModule</title>
<path fill="none" stroke="#000000" d="M135,-266.1061C135,-266.1061 135,-284.991 135,-284.991"/>
<polygon fill="#000000" stroke="#000000" points="131.5001,-284.9909 135,-294.991 138.5001,-284.991 131.5001,-284.9909"/>
</g>
<!-- MainComponent  -->
<g id="node14" class="node">
<title>MainComponent </title>
<polygon fill="#fb8072" stroke="#000000" points="579.3828,-198 464.6172,-198 464.6172,-162 579.3828,-162 579.3828,-198"/>
<text text-anchor="middle" x="522" y="-175.8" font-family="Times,serif" font-size="14.00" fill="#000000">MainComponent </text>
</g>
<!-- LayoutModule&#45;&gt;MainComponent  -->
<g id="edge14" class="edge">
<title>LayoutModule&#45;&gt;MainComponent </title>
<path fill="none" stroke="#000000" stroke-dasharray="5,2" d="M182.3549,-229.8196C182.3549,-216.9618 182.3549,-202 182.3549,-202 182.3549,-202 522,-202 522,-202 522,-202 522,-201.6168 522,-201.6168"/>
<polygon fill="#000000" stroke="#000000" points="525.5003,-208.1678 522,-198.1679 518.5003,-208.168 525.5003,-208.1678"/>
</g>
<!-- PagesModule&#45;&gt;AppModule -->
<g id="edge5" class="edge">
<title>PagesModule&#45;&gt;AppModule</title>
<path fill="none" stroke="#000000" d="M249,-266.1061C249,-285.3391 249,-313 249,-313 249,-313 186.8021,-313 186.8021,-313"/>
<polygon fill="#000000" stroke="#000000" points="186.8021,-309.5001 176.8021,-313 186.802,-316.5001 186.8021,-309.5001"/>
</g>
<!-- CategoriesService -->
<g id="node8" class="node">
<title>CategoriesService</title>
<ellipse fill="#fdb462" stroke="#000000" cx="105" cy="-104" rx="81.0744" ry="18"/>
<text text-anchor="middle" x="105" y="-99.8" font-family="Times,serif" font-size="14.00" fill="#000000">CategoriesService</text>
</g>
<!-- CategoriesService&#45;&gt;CoreModule -->
<g id="edge7" class="edge">
<title>CategoriesService&#45;&gt;CoreModule</title>
<path fill="none" stroke="#000000" d="M105,-122.0109C105,-122.0109 105,-151.855 105,-151.855"/>
<polygon fill="#000000" stroke="#000000" points="101.5001,-151.8549 105,-161.855 108.5001,-151.855 101.5001,-151.8549"/>
</g>
<!-- FooterComponent -->
<g id="node9" class="node">
<title>FooterComponent</title>
<polygon fill="#ffffb3" stroke="#000000" points="982.8809,-198 865.1191,-198 865.1191,-162 982.8809,-162 982.8809,-198"/>
<text text-anchor="middle" x="924" y="-175.8" font-family="Times,serif" font-size="14.00" fill="#000000">FooterComponent</text>
</g>
<!-- FooterComponent&#45;&gt;LayoutModule -->
<g id="edge8" class="edge">
<title>FooterComponent&#45;&gt;LayoutModule</title>
<path fill="none" stroke="#000000" d="M924,-198.1944C924,-206.2782 924,-214 924,-214 924,-214 175.6084,-214 175.6084,-214 175.6084,-214 175.6084,-219.8056 175.6084,-219.8056"/>
<polygon fill="#000000" stroke="#000000" points="172.1084,-219.8055 175.6084,-229.8056 179.1084,-219.8056 172.1084,-219.8055"/>
</g>
<!-- HeaderComponent -->
<g id="node10" class="node">
<title>HeaderComponent</title>
<polygon fill="#ffffb3" stroke="#000000" points="846.7437,-198 725.2563,-198 725.2563,-162 846.7437,-162 846.7437,-198"/>
<text text-anchor="middle" x="786" y="-175.8" font-family="Times,serif" font-size="14.00" fill="#000000">HeaderComponent</text>
</g>
<!-- HeaderComponent&#45;&gt;LayoutModule -->
<g id="edge9" class="edge">
<title>HeaderComponent&#45;&gt;LayoutModule</title>
<path fill="none" stroke="#000000" d="M786,-198.1432C786,-204.4611 786,-210 786,-210 786,-210 173.3595,-210 173.3595,-210 173.3595,-210 173.3595,-219.8903 173.3595,-219.8903"/>
<polygon fill="#000000" stroke="#000000" points="169.8596,-219.8903 173.3595,-229.8903 176.8596,-219.8904 169.8596,-219.8903"/>
</g>
<!-- MainComponent -->
<g id="node11" class="node">
<title>MainComponent</title>
<polygon fill="#ffffb3" stroke="#000000" points="1253.3823,-198 1142.6177,-198 1142.6177,-162 1253.3823,-162 1253.3823,-198"/>
<text text-anchor="middle" x="1198" y="-175.8" font-family="Times,serif" font-size="14.00" fill="#000000">MainComponent</text>
</g>
<!-- MainComponent&#45;&gt;LayoutModule -->
<g id="edge10" class="edge">
<title>MainComponent&#45;&gt;LayoutModule</title>
<path fill="none" stroke="#000000" d="M1198,-198.0555C1198,-209.439 1198,-222 1198,-222 1198,-222 180.1061,-222 180.1061,-222 180.1061,-222 180.1061,-222.7942 180.1061,-222.7942"/>
<polygon fill="#000000" stroke="#000000" points="176.6062,-219.9421 180.1061,-229.9421 183.6062,-219.9422 176.6062,-219.9421"/>
</g>
<!-- SidebarComponent -->
<g id="node12" class="node">
<title>SidebarComponent</title>
<polygon fill="#ffffb3" stroke="#000000" points="1125.0954,-198 1000.9046,-198 1000.9046,-162 1125.0954,-162 1125.0954,-198"/>
<text text-anchor="middle" x="1063" y="-175.8" font-family="Times,serif" font-size="14.00" fill="#000000">SidebarComponent</text>
</g>
<!-- SidebarComponent&#45;&gt;LayoutModule -->
<g id="edge11" class="edge">
<title>SidebarComponent&#45;&gt;LayoutModule</title>
<path fill="none" stroke="#000000" d="M1063,-198.1097C1063,-207.897 1063,-218 1063,-218 1063,-218 177.8572,-218 177.8572,-218 177.8572,-218 177.8572,-219.8568 177.8572,-219.8568"/>
<polygon fill="#000000" stroke="#000000" points="174.3573,-219.8568 177.8572,-229.8568 181.3573,-219.8568 174.3573,-219.8568"/>
</g>
<!-- SharedModule -->
<g id="node13" class="node">
<title>SharedModule</title>
<polygon fill="#8dd3c7" stroke="#000000" points="701.4231,-198 698.4231,-202 677.4231,-202 674.4231,-198 602.5769,-198 602.5769,-162 701.4231,-162 701.4231,-198"/>
<text text-anchor="middle" x="652" y="-175.8" font-family="Times,serif" font-size="14.00" fill="#000000">SharedModule</text>
</g>
<!-- SharedModule&#45;&gt;LayoutModule -->
<g id="edge13" class="edge">
<title>SharedModule&#45;&gt;LayoutModule</title>
<path fill="none" stroke="#000000" d="M652,-198.0579C652,-202.4945 652,-206 652,-206 652,-206 171.1106,-206 171.1106,-206 171.1106,-206 171.1106,-219.9445 171.1106,-219.9445"/>
<polygon fill="#000000" stroke="#000000" points="167.6107,-219.9444 171.1106,-229.9445 174.6107,-219.9445 167.6107,-219.9444"/>
</g>
<!-- SearchComponent  -->
<g id="node17" class="node">
<title>SearchComponent </title>
<polygon fill="#fb8072" stroke="#000000" points="640.4194,-122 517.5806,-122 517.5806,-86 640.4194,-86 640.4194,-122"/>
<text text-anchor="middle" x="579" y="-99.8" font-family="Times,serif" font-size="14.00" fill="#000000">SearchComponent </text>
</g>
<!-- SharedModule&#45;&gt;SearchComponent  -->
<g id="edge18" class="edge">
<title>SharedModule&#45;&gt;SearchComponent </title>
<path fill="none" stroke="#000000" stroke-dasharray="5,2" d="M621.6243,-161.9891C621.6243,-161.9891 621.6243,-132.145 621.6243,-132.145"/>
<polygon fill="#000000" stroke="#000000" points="625.1244,-132.145 621.6243,-122.145 618.1244,-132.1451 625.1244,-132.145"/>
</g>
<!-- HomeComponent -->
<g id="node15" class="node">
<title>HomeComponent</title>
<polygon fill="#ffffb3" stroke="#000000" points="1408.5451,-198 1293.4549,-198 1293.4549,-162 1408.5451,-162 1408.5451,-198"/>
<text text-anchor="middle" x="1351" y="-175.8" font-family="Times,serif" font-size="14.00" fill="#000000">HomeComponent</text>
</g>
<!-- HomeComponent&#45;&gt;PagesModule -->
<g id="edge15" class="edge">
<title>HomeComponent&#45;&gt;PagesModule</title>
<path fill="none" stroke="#000000" d="M1351,-198.1804C1351,-211.0382 1351,-226 1351,-226 1351,-226 264.3677,-226 264.3677,-226 264.3677,-226 264.3677,-226.3832 264.3677,-226.3832"/>
<polygon fill="#000000" stroke="#000000" points="260.868,-219.832 264.3677,-229.8321 267.868,-219.8322 260.868,-219.832"/>
</g>
<!-- SearchComponent -->
<g id="node16" class="node">
<title>SearchComponent</title>
<polygon fill="#ffffb3" stroke="#000000" points="783.9201,-122 664.0799,-122 664.0799,-86 783.9201,-86 783.9201,-122"/>
<text text-anchor="middle" x="724" y="-99.8" font-family="Times,serif" font-size="14.00" fill="#000000">SearchComponent</text>
</g>
<!-- SearchComponent&#45;&gt;SharedModule -->
<g id="edge17" class="edge">
<title>SearchComponent&#45;&gt;SharedModule</title>
<path fill="none" stroke="#000000" d="M682.7507,-122.0109C682.7507,-122.0109 682.7507,-151.855 682.7507,-151.855"/>
<polygon fill="#000000" stroke="#000000" points="679.2508,-151.8549 682.7507,-161.855 686.2508,-151.855 679.2508,-151.8549"/>
</g>
</g>
</svg>
